<svg width="96" height="96" xmlns="http://www.w3.org/2000/svg" xmlns:xlink="http://www.w3.org/1999/xlink" xml:space="preserve" overflow="hidden"><g transform="translate(-592 -312)"><path d="M615 326 665 326 665 394 615 394 615 326ZM609 400 671 400 671 320 609 320 609 400Z" fill="#FFFFFF"/><path d="M622 332 630 332 630 340 622 340Z" fill="#FFFFFF"/><path d="M638 334 658 334 658 338 638 338Z" fill="#FFFFFF"/><path d="M622 348 630 348 630 356 622 356Z" fill="#FFFFFF"/><path d="M638 350 658 350 658 354 638 354Z" fill="#FFFFFF"/><path d="M622 364 630 364 630 372 622 372Z" fill="#FFFFFF"/><path d="M638 366 658 366 658 370 638 370Z" fill="#FFFFFF"/><path d="M622 380 630 380 630 388 622 388Z" fill="#FFFFFF"/><path d="M638 382 658 382 658 386 638 386Z" fill="#FFFFFF"/></g></svg>